<?xml version="1.0" encoding="UTF-8"?>
<svg id="Layer_1" data-name="Layer 1" xmlns="http://www.w3.org/2000/svg" viewBox="0 0 34 34">
  <defs>
    <style>
      .cls-1 {
        fill: #121212;
        stroke-width: 0px;
      }
    </style>
  </defs>
  <path class="cls-1" d="m8.91,6.21c-.09-1.03.03-1.93.84-2.61.46-.39,1-.57,1.58-.56.79.01,1.43.37,1.91,1.01.47.63.45,1.37.43,2.13h6.66c0-.26,0-.51,0-.77.04-1.33,1.1-2.38,2.39-2.37,1.32.02,2.36,1.05,2.39,2.38,0,.25,0,.49,0,.84.69,0,1.33-.05,1.96,0,1.73.16,3.04,1.58,3.12,3.31.02.45,0,.91,0,1.36,0,5.47,0,10.93,0,16.4,0,1.44-.61,2.57-1.91,3.21-.51.25-1.12.4-1.69.4-6.38.03-12.76.02-19.14.01-2.15,0-3.64-1.5-3.64-3.67,0-5.8,0-11.61,0-17.41,0-2.14,1.46-3.62,3.61-3.67.47-.01.94,0,1.5,0Zm19.87,7.85H5.25c-.01.1-.03.17-.03.24,0,4.38,0,8.76,0,13.14,0,.96.61,1.77,1.49,2,.33.09.7.11,1.05.11,4.97,0,9.94,0,14.92,0,1.26,0,2.52,0,3.78,0,1.47,0,2.32-.88,2.32-2.34,0-4.16,0-8.32,0-12.48,0-.22,0-.43,0-.67Zm-23.52-1.47h23.45c0-1.14.06-2.25-.02-3.35-.06-.71-.58-1.21-1.26-1.46-.75-.27-1.52-.15-2.32-.13,0,.31,0,.57,0,.84-.06,1.62-1.65,2.7-3.18,2.17-1.05-.36-1.61-1.23-1.59-2.56,0-.39-.11-.49-.49-.49-1.75.02-3.49,0-5.24,0q-.9,0-.94.87c-.06,1.31-1.09,2.3-2.41,2.29-1.31,0-2.33-1.01-2.37-2.33,0-.26,0-.52,0-.8-.66,0-1.26-.05-1.86.01-.91.09-1.68.79-1.75,1.7-.08,1.06-.02,2.13-.02,3.22Zm5.04-5.7c0,.5-.01.99,0,1.49.01.57.42.98.96.99.57,0,.99-.38,1-.99.01-.96.01-1.93,0-2.89,0-.61-.42-1.02-.97-1.02-.54,0-.97.43-.98,1.02-.01.47,0,.93,0,1.4Zm13.4.04h0c0-.5.01-.99,0-1.49-.02-.57-.44-.98-.98-.97-.54,0-.96.41-.97.98-.01.98-.02,1.96,0,2.94,0,.6.43.99,1,.98.54,0,.94-.41.95-.99.01-.48,0-.96,0-1.45Z"/>
  <path class="cls-1" d="m18.21,21.8c0-.7.55-1.27,1.24-1.26.7,0,1.25.57,1.25,1.26,0,.68-.55,1.23-1.23,1.24-.7.01-1.26-.54-1.26-1.24Z"/>
  <path class="cls-1" d="m19.48,16.06c.7.01,1.24.58,1.22,1.29-.02.68-.58,1.22-1.25,1.22-.72,0-1.26-.58-1.24-1.31.02-.67.58-1.2,1.26-1.19Z"/>
  <path class="cls-1" d="m15.79,17.3c0,.7-.54,1.25-1.25,1.25-.67,0-1.23-.56-1.24-1.22,0-.71.53-1.26,1.23-1.28.68-.02,1.25.55,1.25,1.25Z"/>
  <path class="cls-1" d="m23.09,21.8c-.01-.67.57-1.26,1.26-1.26.67,0,1.24.56,1.25,1.22.01.69-.55,1.27-1.23,1.28-.69.01-1.26-.55-1.28-1.24Z"/>
  <path class="cls-1" d="m19.45,25.02c.69,0,1.25.56,1.24,1.26,0,.69-.58,1.25-1.27,1.24-.68-.01-1.21-.55-1.21-1.24,0-.7.55-1.26,1.24-1.26Z"/>
  <path class="cls-1" d="m10.92,21.81c0,.68-.6,1.25-1.28,1.24-.67-.02-1.21-.57-1.22-1.25,0-.69.55-1.25,1.25-1.26.68,0,1.25.58,1.25,1.27Z"/>
  <path class="cls-1" d="m15.8,21.77c0,.7-.54,1.27-1.24,1.27-.68,0-1.25-.57-1.25-1.26,0-.67.54-1.22,1.22-1.24.69-.02,1.26.53,1.27,1.23Z"/>
  <path class="cls-1" d="m10.91,26.34c-.03.65-.64,1.2-1.29,1.18-.69-.03-1.23-.61-1.2-1.3.03-.69.63-1.24,1.31-1.19.7.05,1.22.63,1.19,1.32Z"/>
  <path class="cls-1" d="m25.59,17.3c0,.69-.56,1.26-1.25,1.26-.67,0-1.26-.59-1.25-1.27,0-.67.59-1.24,1.28-1.23.66,0,1.22.57,1.22,1.24Z"/>
  <path class="cls-1" d="m14.55,27.52c-.7,0-1.25-.57-1.25-1.26,0-.69.58-1.25,1.27-1.24.68,0,1.23.59,1.22,1.29-.01.68-.57,1.22-1.24,1.21Z"/>
</svg>