<?xml version="1.0" encoding="UTF-8"?>
<svg id="Layer_1" data-name="Layer 1" xmlns="http://www.w3.org/2000/svg" viewBox="0 0 34 34">
  <defs>
    <style>
      .cls-1 {
        fill: #121212;
        stroke-width: 0px;
      }
    </style>
  </defs>
  <path class="cls-1" d="m3.09,18.66c0-2.62,0-5.23,0-7.85,0-2.78,1.66-4.42,4.45-4.42.37,0,.74,0,1.11,0,.53-.02,1.12,0,1.13.67,0,.72-.62.72-1.17.71-.5,0-1,0-1.51,0-1.51.03-2.63,1.1-2.63,2.59-.02,5.52-.02,11.04,0,16.56,0,1.51,1.15,2.59,2.71,2.6,3.06.01,6.13,0,9.19,0,.21,0,.47-.07.62.03.24.16.52.41.55.65.03.18-.3.43-.48.63-.04.05-.15.05-.23.05-3.41-.02-6.82.08-10.22-.09-2.17-.11-3.52-1.86-3.54-4.13-.02-2.67,0-5.34,0-8Z"/>
  <path class="cls-1" d="m29.87,24.27c0,3.13-2.51,5.62-5.65,5.6-3.09-.02-5.59-2.52-5.61-5.59-.01-3.07,2.57-5.66,5.64-5.67,3.1,0,5.62,2.54,5.61,5.66Zm-5.62-4.28c-2.38,0-4.26,1.89-4.26,4.28,0,2.35,1.93,4.29,4.27,4.29,2.33,0,4.29-1.98,4.29-4.3,0-2.35-1.94-4.27-4.3-4.26Z"/>
  <path class="cls-1" d="m16.99,13.03c3.35,0,6.71,0,10.06,0,.21,0,.46-.06.62.03.22.13.5.37.52.58.01.21-.23.53-.44.64-.24.12-.57.08-.85.08-6.6,0-13.21,0-19.81,0-.55,0-1.33.17-1.31-.71.02-.82.78-.61,1.3-.61,3.3-.01,6.6,0,9.9,0Z"/>
  <path class="cls-1" d="m29.53,13.39c0-1,.01-2.01,0-3.01-.03-1.5-1.12-2.58-2.61-2.61-.63-.01-1.28.07-1.89-.04-.3-.05-.55-.43-.83-.65.27-.23.52-.62.82-.66.73-.09,1.48-.08,2.21,0,2.09.19,3.6,1.81,3.66,3.97.05,2.03.01,4.06.01,6.1,0,.49-.11.95-.7.95-.59,0-.68-.46-.67-.95.01-1.03,0-2.06,0-3.09Z"/>
  <path class="cls-1" d="m17.24,6.39c1.19,0,2.37,0,3.56,0,.49,0,.94.08.94.69,0,.61-.46.69-.94.69-2.43,0-4.86,0-7.28,0-.51,0-.94-.16-.91-.73.02-.52.44-.65.91-.65,1.24,0,2.48,0,3.72,0Z"/>
  <path class="cls-1" d="m11.91,7.13c0,1,0,2,0,3,0,.48-.15.89-.66.9-.57.02-.73-.41-.72-.92,0-2.03-.03-4.06.03-6.09,0-.31.38-.84.64-.88.54-.09.72.38.71.89-.01,1.03,0,2.06,0,3.08Z"/>
  <path class="cls-1" d="m23.65,7.1c0,1.03,0,2.05,0,3.08,0,.5-.2.91-.69.83-.26-.04-.64-.51-.65-.79-.05-2.11-.05-4.21,0-6.32,0-.27.44-.53.68-.8.22.28.6.54.63.84.08,1.05.03,2.11.03,3.16Z"/>
  <path class="cls-1" d="m7.71,24.27c-.32,0-.66.08-.94-.02-.27-.1-.68-.43-.65-.59.05-.28.37-.68.62-.72.64-.1,1.32-.09,1.97,0,.25.04.45.42.67.64-.24.23-.44.54-.73.66-.27.11-.62.02-.94.02Z"/>
  <path class="cls-1" d="m12.27,24.27c-.32,0-.67.09-.94-.03-.26-.11-.57-.41-.61-.66-.03-.19.32-.6.54-.62.7-.08,1.42-.09,2.12,0,.22.03.56.46.55.68-.01.22-.38.52-.64.61-.31.11-.68.02-1.02.02Z"/>
  <path class="cls-1" d="m7.76,26.21c.32,0,.67-.09.94.03.27.11.62.42.62.65,0,.23-.36.63-.6.66-.67.09-1.37.09-2.05,0-.23-.03-.58-.45-.57-.67,0-.23.36-.53.63-.63.3-.11.68-.03,1.02-.02Z"/>
  <path class="cls-1" d="m12.29,27.58c-.32,0-.67.09-.94-.02-.27-.11-.62-.41-.63-.64,0-.22.35-.63.59-.66.67-.09,1.37-.09,2.05,0,.23.03.58.44.58.66,0,.23-.35.54-.62.64-.3.11-.68.03-1.02.03Z"/>
  <path class="cls-1" d="m17.62,17.64c-.34,0-.71.09-1.01-.03-.26-.1-.56-.39-.6-.65-.03-.17.33-.57.55-.59.7-.08,1.42-.08,2.12,0,.22.02.57.41.55.58-.04.25-.33.55-.59.65-.3.11-.67.03-1.01.03Z"/>
  <path class="cls-1" d="m12.41,16.34c.31,0,.67-.09.93.03.26.11.55.4.59.65.03.17-.33.56-.55.58-.7.08-1.42.08-2.12,0-.22-.02-.58-.42-.55-.59.05-.25.35-.56.6-.64.33-.11.73-.03,1.09-.03Z"/>
  <path class="cls-1" d="m22.89,17.63c-.37,0-.76.08-1.09-.03-.23-.08-.48-.41-.5-.65-.02-.18.29-.55.48-.57.73-.07,1.47-.08,2.2,0,.21.02.54.39.54.61,0,.21-.31.54-.54.62-.33.11-.73.03-1.09.03,0,0,0,0,0,0Z"/>
  <path class="cls-1" d="m7.67,20.95c-.32,0-.66.08-.94-.02-.26-.1-.57-.38-.62-.63-.04-.17.31-.6.51-.62.73-.08,1.47-.08,2.19,0,.2.02.52.42.51.64,0,.21-.33.52-.57.6-.34.1-.73.03-1.09.03h0Z"/>
  <path class="cls-1" d="m12.33,20.95c-.32,0-.66.08-.94-.02-.27-.1-.65-.36-.67-.58-.02-.22.33-.64.55-.67.7-.09,1.42-.09,2.12,0,.22.03.52.43.54.68.02.17-.34.48-.59.56-.31.1-.68.02-1.02.02Z"/>
  <path class="cls-1" d="m17.62,20.94c-.37,0-.76.08-1.09-.03-.23-.08-.5-.4-.53-.64-.02-.18.29-.57.48-.58.75-.07,1.52-.08,2.27,0,.19.02.49.44.47.65-.02.22-.34.5-.58.58-.31.1-.67.02-1.01.02h0Z"/>
  <path class="cls-1" d="m24.92,23.59c.57,0,1.09-.09,1.55.03.3.07.52.45.78.69-.26.2-.5.52-.8.58-.45.1-.94.03-1.53.03,0,.52.08,1.03-.03,1.49-.07.31-.41.56-.62.83-.23-.27-.57-.51-.65-.82-.11-.44-.03-.93-.03-1.51-.56,0-1.07.07-1.54-.03-.28-.06-.51-.39-.76-.6.23-.23.44-.6.71-.67.47-.11.98-.03,1.59-.03,0-.53,0-.97,0-1.41,0-.46.11-.88.67-.89.55,0,.68.39.67.87-.01.44,0,.88,0,1.42Z"/>
</svg>