<?xml version="1.0" encoding="UTF-8"?>
<svg id="Layer_1" data-name="Layer 1" xmlns="http://www.w3.org/2000/svg" viewBox="0 0 34 34">
  <defs>
    <style>
      .cls-1 {
        fill: #121212;
      }

      .cls-1, .cls-2 {
        stroke-width: 0px;
      }

      .cls-2 {
        fill: #fff;
      }
    </style>
  </defs>
  <path class="cls-1" d="m11.07,5.64c1.29-.02,2.54.18,3.65.77.66.35,1.41.62,1.91,1.28.45.6,1.09,1.04,1.57,1.62.32.39.53.87.73,1.34.23.52.45,1.06.56,1.61.19.93.51,1.86.2,2.84-.14.45-.11.95-.23,1.4-.14.55-.33,1.09-.55,1.61-.37.87-.97,1.61-1.61,2.27-.59.6-1.34,1.06-2.05,1.54-.93.63-1.99.89-3.1.96-.42.03-.86.21-1.26.13-.89-.18-1.8-.17-2.69-.47-.89-.29-1.67-.75-2.38-1.26-.76-.53-1.35-1.33-1.95-2.07-.64-.78-.84-1.77-1.2-2.69-.27-.69-.3-1.4-.33-2.05-.03-.72-.1-1.52.33-2.23.23-.39.32-.88.42-1.33.16-.73.6-1.3,1.05-1.84.47-.58.99-1.12,1.54-1.62.31-.28.72-.45,1.09-.67.64-.38,1.28-.76,2.05-.85.75-.09,1.5-.2,2.25-.3Zm1.94,7.36c-.54-.06-.75.22-.87.66-.1.4-.68.61-.88.34-.13-.18-.13-.44-.25-.62-.12-.17-.31-.39-.48-.4-.2-.01-.59.18-.59.28,0,.27.1.59.27.8.67.78.55,1.69-.31,2.13-.85.43-1.78,0-2-.91-.08-.33-.14-.66-.2-1h-.67c.08.75,0,1.52.26,2.16.51,1.23,2.05,1.51,3.2.78.68-.44.84-1.14,1.1-1.68.42-.27.79-.49,1.17-.74.38.33.82.53,1.37.23.73-.41,1.15-1.46.89-2.24-.18-.53-.42-.72-.76-.58-.19.08-.38.16-.54.23.13.23.3.46.39.71.1.28.07.59-.26.7-.34.11-.66.03-.77-.38-.04-.14-.04-.29-.06-.47Zm-.2-1.31l.1.11c.17-.19.43-.35.49-.57.09-.32-.26-.67-.58-.68-.43,0-.51.27-.52.61,0,.33.06.6.5.52Zm-1.81.25c.39-.08.8-.05.89-.21.12-.22.11-.63-.03-.84-.1-.15-.49-.12-.86-.19v1.24Zm.53-1.89c-.02.29.04.53.45.52.35,0,.57-.13.56-.51,0-.33-.09-.61-.51-.61-.39,0-.51.22-.5.6Z"/>
  <path class="cls-1" d="m22.92,29.68c-1.11.03-2.2-.15-3.2-.61-.83-.39-1.73-.7-2.38-1.41-.52-.58-1.12-1.09-1.62-1.7-.3-.36-.47-.82-.68-1.25-.13-.27-.19-.6-.36-.84-.2-.28.03-.37.15-.45.56-.34,1.18-.59,1.7-.98.97-.74,1.93-1.49,2.62-2.55.48-.74.78-1.53,1.12-2.32.55-1.27.57-2.59.62-3.92,0-.22-.07-.45-.12-.67-.08-.34.07-.56.39-.61.55-.09,1.12-.23,1.66-.17,1,.11,1.98.36,2.98.53,1.1.18,1.92.89,2.74,1.52.61.47,1.06,1.15,1.57,1.75.68.82,1.02,1.81,1.26,2.82.21.89.34,1.83.28,2.74-.05.81-.42,1.59-.59,2.39-.23,1.12-.93,1.99-1.61,2.8-.7.84-1.64,1.5-2.67,2.01-1.24.61-2.53.85-3.88.9Zm1.74-10.14c.4,0,.73.02,1.06,0,.54-.03,1.08-.1,1.62-.13.44-.02.57-.36.54-.66-.04-.35-.32-.52-.74-.51-2.03.03-4.07.01-6.1.01-.08,0-.19-.03-.25.01-.19.13-.43.26-.53.45-.16.32.13.54.36.63.33.13.7.18,1.05.2.56.03,1.12,0,1.7,0,0,1.77-.01,3.45,0,5.14,0,.43.11.85.17,1.25,1.04.13,1.11.07,1.11-.85,0-.25,0-.5,0-.75,0-1.56,0-3.13,0-4.78Z"/>
  <path class="cls-1" d="m13.63,29.91c-.7-.08-1.36-.13-2.01-.25-.82-.15-1.56-.48-2.27-.95-.74-.49-1.39-1.04-1.84-1.8-.31-.5-.6-1.02-.83-1.56-.14-.32-.07-.65.32-.81.48-.2.7.15.9.45.33.5.56,1.09.94,1.55.81.96,1.75,1.77,3.1,1.87.4.03.8.13,1.29.21-.09-.19-.17-.28-.16-.36.05-.29.04-.65.21-.83.11-.12.53-.05.76.05.48.23.92.54,1.37.83.3.2.36.76.14,1.1-.26.39-.55.76-.79,1.16-.18.31-.41.48-.75.37-.35-.12-.48-.4-.39-.77.02-.08,0-.16,0-.26Z"/>
  <path class="cls-1" d="m21.2,5.59c.06.16.15.31.17.45.02.27.06.64-.27.69-.26.04-.58-.07-.84-.19-.32-.16-.58-.44-.9-.58-.61-.28-.77-.61-.43-1.2.28-.49.64-.94.9-1.43.22-.41.57-.32.79-.19.22.14.46.44.25.79-.03.05-.07.09-.15.2.23.02.39.03.54.04,1.25.04,2.43.38,3.52.95.95.5,1.68,1.27,2.29,2.18.35.52.66,1.03.71,1.67.02.3-.08.57-.36.6-.22.03-.49-.11-.68-.24-.13-.09-.21-.29-.26-.46-.25-.79-.77-1.41-1.35-1.95-.49-.45-1.05-.83-1.72-1.06-.73-.24-1.44-.38-2.21-.27Z"/>
  <g>
    <g>
      <path class="cls-2" d="m13.01,13c.02.18.03.33.06.47.11.41.43.49.77.38.33-.1.36-.42.26-.7-.09-.26-.26-.48-.39-.71.16-.07.35-.15.54-.23.33-.14.58.05.76.58.27.78-.15,1.83-.89,2.24-.55.3-.99.1-1.37-.23-.39.24-.75.47-1.17.74-.26.54-.41,1.24-1.1,1.68-1.15.74-2.69.45-3.2-.78-.26-.63-.18-1.41-.26-2.16h.67c.07.33.12.67.2,1,.22.92,1.16,1.34,2,.91.86-.44.98-1.35.31-2.13-.17-.2-.28-.53-.27-.8,0-.11.39-.29.59-.28.17,0,.36.23.48.4.12.18.13.45.25.62.2.28.77.06.88-.34.11-.44.32-.72.87-.66Z"/>
      <path class="cls-2" d="m12.81,11.69c-.44.08-.51-.19-.5-.52,0-.34.09-.62.52-.61.31,0,.67.35.58.68-.06.22-.32.38-.49.57l-.1-.11Z"/>
      <path class="cls-2" d="m11,11.94v-1.24c.37.07.76.03.86.19.14.21.15.62.03.84-.09.15-.49.13-.89.21Z"/>
      <path class="cls-2" d="m11.52,10.05c-.01-.37.11-.6.5-.6.42,0,.5.28.51.61.01.38-.21.5-.56.51-.4,0-.46-.24-.45-.52Z"/>
    </g>
    <path class="cls-2" d="m24.66,19.54c0,1.65,0,3.22,0,4.78,0,.25,0,.5,0,.75,0,.92-.08.99-1.11.85-.06-.4-.16-.82-.17-1.25-.02-1.68,0-3.36,0-5.14-.58,0-1.14.02-1.7,0-.35-.02-.73-.07-1.05-.2-.22-.09-.52-.31-.36-.63.1-.19.34-.31.53-.45.06-.04.16-.01.25-.01,2.03,0,4.07.01,6.1-.01.42,0,.7.16.74.51.03.3-.1.63-.54.66-.54.03-1.08.1-1.62.13-.33.02-.66,0-1.06,0Z"/>
  </g>
</svg>