<?xml version="1.0" encoding="UTF-8"?>
<svg id="Layer_1" data-name="Layer 1" xmlns="http://www.w3.org/2000/svg" viewBox="0 0 34 34">
  <defs>
    <style>
      .cls-1 {
        fill: #121212;
        stroke-width: 0px;
      }
    </style>
  </defs>
  <path class="cls-1" d="m2.06,23.65c.12-.15.24-.3.37-.44,1.54-1.54,3.08-3.08,4.62-4.62.08-.08.2-.13.34-.21-.32-.3-.55-.51-.77-.73-1.31-1.31-.91-3.21.8-3.89.04-.01.07-.03.12-.06-.42-.71-.5-1.45-.17-2.2.33-.74.93-1.17,1.75-1.34-.15-.69-.05-1.33.35-1.9.39-.56.95-.87,1.64-.97-.18-1.15.24-2.03,1.23-2.61.82-.48,1.39-.37,2.7.49.04-.16.07-.32.11-.48.47-1.61,2.45-2.19,3.7-1.07.48.43.91.9,1.37,1.35.09.09.23.17.35.17,1.37,0,2.37,1.24,2.23,2.55,0,.08,0,.15-.01.26.68.11,1.23.42,1.62.98.39.56.51,1.19.37,1.89.81.17,1.41.62,1.76,1.37.36.75.32,1.5-.02,2.24,1.63.61,2.22,2.89.37,4.27.08.08.15.17.23.25,1.48,1.47,2.96,2.95,4.44,4.42.45.45.45.71,0,1.15-.35.35-.7.7-1.05,1.05-.29.29-.65.31-.9.06-.25-.25-.23-.61.07-.9.25-.25.52-.5.76-.72-.37-.38-.7-.73-1.09-1.13-1.83,1.86-3.67,3.71-5.49,5.56.34.35.68.69,1.06,1.07.29-.31.59-.63.9-.93.36-.35.91-.21,1,.26.03.17-.04.42-.16.55-.43.48-.89.92-1.35,1.37-.29.28-.61.25-.92-.06-1.32-1.32-2.64-2.64-3.96-3.96-.06-.06-.12-.12-.19-.19-.24-.24-.46-.51-.73-.71-.31-.23-.64.05-.97.04-1.34-.07-2.68-.08-4.02-.15-.64-.03-1.14.19-1.59.64-1.24,1.26-2.5,2.5-3.76,3.75-.43.43-.71.43-1.13,0-1.9-1.91-3.8-3.81-5.7-5.72-.11-.11-.22-.24-.33-.36,0-.14,0-.27,0-.41Zm8.51,3.49c.56-.57,1.13-1.15,1.7-1.73.62-.63,1.39-.9,2.27-.87,1.26.05,2.52.1,3.79.15.58.03,1.06-.16,1.47-.57,2.22-2.22,4.44-4.44,6.66-6.66.09-.09.18-.18.24-.29.28-.43.2-1.04-.17-1.39-.35-.32-.83-.32-1.27.02-.07.05-.13.11-.2.17-.3.22-.64.18-.85-.1-.22-.29-.17-.6.14-.83.15-.11.3-.22.45-.32.35-.24.59-.56.74-.95.31-.79-.15-1.64-.94-1.76-.36-.06-.66.09-.93.32-.29.25-.63.22-.85-.05-.22-.25-.19-.58.07-.83.1-.09.2-.18.32-.26.44-.28.55-.7.45-1.17-.09-.44-.37-.74-.82-.85-.41-.11-.74.03-1.05.29-.29.25-.63.22-.86-.04-.22-.25-.18-.6.08-.86.08-.07.17-.14.25-.21.48-.43.54-1.18.14-1.65-.4-.46-1.09-.53-1.54-.11-.58.55-1.13,1.13-1.69,1.7.65.77,1.17,1.6.75,2.65-.4,1-1.2,1.48-2.27,1.5-.12,1.5-.9,2.32-2.38,2.42-.01.67-.24,1.22-.69,1.7-.47.49-1.07.64-1.73.67-.01.95-.38,1.69-1.22,2.13-.84.44-1.67.34-2.41-.15-.94.94-1.88,1.87-2.79,2.78,1.7,1.7,3.41,3.42,5.15,5.16Zm12.45.4c1.82-1.82,3.66-3.66,5.48-5.48-.81-.81-1.64-1.64-2.45-2.45-1.82,1.82-3.65,3.66-5.47,5.49.81.81,1.64,1.64,2.44,2.44Zm-6.45-16.3c.62-.02.97-.22,1.16-.64.2-.44.14-.87-.2-1.21-1.13-1.14-2.26-2.28-3.4-3.4-.45-.44-1.12-.42-1.54.01-.43.43-.44,1.09,0,1.54,1.11,1.13,2.23,2.25,3.36,3.35.19.19.49.28.61.34Zm-1.15,1.32c.01-.34-.14-.62-.37-.85-.95-.95-1.89-1.9-2.84-2.84-.49-.49-1.16-.52-1.61-.08-.46.44-.43,1.14.06,1.63.98.97,1.96,1.94,2.94,2.91.34.33.73.38,1.16.22.42-.15.67-.55.67-.99Zm-3.5,3.53s.03-.05.04-.08c.45,0,.84-.26,1.01-.66.17-.4.08-.86-.23-1.18-.84-.84-1.69-1.69-2.54-2.52-.11-.1-.24-.2-.38-.25-.48-.17-1,.03-1.27.46-.27.44-.22.98.16,1.36.82.83,1.63,1.66,2.48,2.47.2.19.49.27.74.4Zm-2.33,11.93c-1.71-1.72-3.42-3.43-5.09-5.09-.3.3-.63.63-.93.92,1.69,1.68,3.41,3.39,5.12,5.09.29-.3.61-.62.89-.91Zm1.05-10.81c-.04-.1-.07-.35-.21-.5-.53-.58-1.08-1.15-1.67-1.67-.41-.36-1.05-.26-1.42.14-.37.4-.41,1.03-.05,1.43.5.54,1.02,1.06,1.56,1.56.34.31.76.33,1.17.13.4-.19.6-.53.61-1.1Zm6.97-10.1c.51-.53,1-1.05,1.5-1.56-.33-.33-.67-.71-1.04-1.05-.43-.39-1.07-.36-1.48.04-.41.4-.45,1.06-.06,1.5.33.37.7.7,1.08,1.07Z"/>
  <path class="cls-1" d="m27.59,27.08c0-.33.26-.58.6-.57.31,0,.57.27.57.57,0,.32-.27.59-.59.59-.33,0-.58-.26-.58-.59Z"/>
</svg>