<?xml version="1.0" encoding="UTF-8"?>
<svg id="Layer_1" data-name="Layer 1" xmlns="http://www.w3.org/2000/svg" viewBox="0 0 34 34">
  <defs>
    <style>
      .cls-1 {
        fill: #121212;
        stroke-width: 0px;
      }
    </style>
  </defs>
  <path class="cls-1" d="m16.98,30.99c-7.61,0-13.84-6.31-13.84-14.03,0-7.79,6.22-14.01,14.03-13.96,7.69.05,13.76,6.5,13.69,14.27-.07,7.42-6.38,13.71-13.88,13.71Zm11.5-14.04c0-6.26-5.17-11.51-11.25-11.62-5.9-.1-11.71,4.69-11.76,11.62-.04,6.38,5.13,11.61,11.41,11.61,6.51,0,11.59-5.1,11.59-11.62Z"/>
  <path class="cls-1" d="m18.15,19.03v1.4h-2.34c.06-.77.02-1.56.19-2.3.19-.82.89-1.2,1.65-1.44,1.27-.4,1.84-1.38,1.53-2.62-.26-1.06-1.22-1.76-2.34-1.71-1.06.05-1.93.83-2.1,1.88-.02.13-.04.26-.07.45-.39,0-.77,0-1.15,0s-.73,0-1.08,0c-.45-1.59,1.21-3.89,3.17-4.49,2.4-.73,4.94.58,5.74,2.95.76,2.24-.22,4.98-3.23,5.89Z"/>
  <path class="cls-1" d="m18.12,21.64v2.32h-2.23v-2.32h2.23Z"/>
</svg>