<?xml version="1.0" encoding="UTF-8"?>
<svg id="Layer_1" data-name="Layer 1" xmlns="http://www.w3.org/2000/svg" viewBox="0 0 34 34">
  <defs>
    <style>
      .cls-1 {
        fill: #121212;
        stroke-width: 0px;
      }
    </style>
  </defs>
  <path class="cls-1" d="m8.36,6.21c.07,2.17.67,3.12,1.95,3.21.86.06,1.65-.19,2.03-.95.33-.66.39-1.45.57-2.24h8.29c0,.33,0,.65,0,.97.03,1.28.95,2.22,2.18,2.23,1.22,0,2.15-.95,2.17-2.23,0-.31,0-.62,0-.97,1.22,0,2.4-.09,3.56.03,1.06.11,2.06,1.29,2.25,2.4.06.36.1.73.1,1.1,0,5.85,0,11.71,0,17.56,0,1.17-.28,2.21-1.25,2.98-.68.54-1.44.69-2.27.69-7.4,0-14.81,0-22.21,0-1.85,0-3.18-1.39-3.18-3.23,0-6.13,0-12.27,0-18.4,0-1.3.58-2.26,1.71-2.87.31-.17.7-.24,1.05-.26,1.01-.03,2.02-.01,3.06-.01Zm-4.81,5.19c-.01.13-.03.2-.03.28,0,5.39,0,10.79.02,16.18,0,.39.17.84.39,1.17.5.76,1.28.97,2.16.97,4.36-.01,8.73,0,13.09,0,2.98,0,5.96,0,8.95-.02,1.47-.02,2.26-.85,2.29-2.32.03-1.67.05-3.35.05-5.02,0-3.48,0-6.96,0-10.44,0-.25-.04-.5-.06-.79H3.55Z"/>
  <path class="cls-1" d="m21.88,5.88c0-.46,0-.92,0-1.38.01-.81.61-1.44,1.4-1.49.84-.05,1.54.48,1.59,1.32.06,1.02.08,2.06,0,3.08-.07.93-.74,1.41-1.68,1.34-.79-.06-1.31-.66-1.32-1.55,0-.44,0-.88,0-1.32Z"/>
  <path class="cls-1" d="m9.06,5.89c0-.5,0-.99,0-1.49.02-.77.59-1.35,1.35-1.39.82-.04,1.6.5,1.63,1.24.04,1.12.04,2.25-.03,3.36-.04.74-.77,1.19-1.63,1.13-.72-.05-1.29-.61-1.31-1.31-.02-.51,0-1.03,0-1.54Z"/>
  <path class="cls-1" d="m17.01,14.36c3.55.01,6.3,2.82,6.29,6.43-.01,3.43-2.89,6.26-6.34,6.23-3.57-.03-6.34-2.84-6.33-6.41.01-3.46,2.87-6.26,6.38-6.24Zm-.04,11.2c2.67,0,4.86-2.16,4.88-4.82.02-2.75-2.13-4.92-4.87-4.93-2.69,0-4.88,2.17-4.9,4.86-.02,2.65,2.21,4.87,4.89,4.88Z"/>
  <path class="cls-1" d="m17.78,21.46c0,.69,0,1.3,0,1.9-.01.57-.27.85-.77.86-.52.01-.8-.22-.83-.8-.03-.62,0-1.24,0-1.93-.64,0-1.22,0-1.8,0-.59,0-.97-.34-.97-.82,0-.45.36-.76.95-.78.46-.02.92-.02,1.38,0,.33.01.46-.1.44-.45-.03-.49-.01-.99.02-1.49.03-.55.34-.84.83-.83.5,0,.77.28.78.85.01.6,0,1.21,0,1.91.66,0,1.28,0,1.9,0,.44,0,.75.17.85.62.11.5-.2.92-.73.95-.65.03-1.31,0-2.03,0Z"/>
</svg>