<?xml version="1.0" encoding="UTF-8"?>
<svg id="Layer_1" data-name="Layer 1" xmlns="http://www.w3.org/2000/svg" viewBox="0 0 34 34">
  <defs>
    <style>
      .cls-1 {
        fill: #121212;
        stroke-width: 0px;
      }
    </style>
  </defs>
  <path class="cls-1" d="m13.19,3.01c1.37,1.12,1.4,1.67.16,2.97-.6.63-1.2,1.27-1.98,2.1.65.04,1.05.09,1.44.09,3.43,0,6.85,0,10.28,0,.9,0,1.76.02,1.78,1.25.01,1.2-.74,1.47-1.76,1.47-3.8-.01-7.61,0-11.71,0,.88,1.01,1.69,1.78,2.3,2.69.29.44.46,1.25.25,1.68-.39.79-1.21.94-1.91.27-1.73-1.68-3.46-3.37-5.12-5.11-.68-.71-.42-1.46.24-2.12,1.77-1.75,3.52-3.52,5.27-5.28.25,0,.51,0,.76,0Z"/>
  <path class="cls-1" d="m22.39,25.93c-3.84,0-7.69,0-11.53,0-.37,0-.9.06-1.09-.15-.34-.37-.65-.93-.62-1.39.02-.36.52-.85.92-1,.53-.2,1.16-.17,1.75-.17,3.54-.01,7.07,0,10.61,0,.07-.11.13-.21.2-.32-.72-.68-1.46-1.34-2.16-2.04-.66-.65-1.07-1.45-.32-2.22.76-.78,1.52-.39,2.19.29,1.43,1.44,2.9,2.85,4.32,4.3,1.11,1.13,1.12,1.54.05,2.65-1.44,1.49-2.93,2.94-4.38,4.41-.67.68-1.43,1.06-2.19.25-.74-.79-.39-1.57.32-2.21.74-.67,1.5-1.32,2.25-1.98l-.31-.42Z"/>
</svg>