<?xml version="1.0" encoding="UTF-8"?>
<svg id="Layer_1" data-name="Layer 1" xmlns="http://www.w3.org/2000/svg" viewBox="0 0 34 34">
  <defs>
    <style>
      .cls-1 {
        fill: #121212;
        stroke-width: 0px;
      }
    </style>
  </defs>
  <path class="cls-1" d="m7.28,16.99c-.34-.51-.54-.98-.88-1.31-.73-.7-1.53-1.32-2.3-1.97-.41-.34-.5-.72-.32-1.22.61-1.67,1.48-3.18,2.62-4.53.41-.48.82-.64,1.44-.38.89.37,1.81.67,2.72.97,1.15.39,2.08-.16,2.3-1.34.18-.97.36-1.94.53-2.91.09-.51.35-.8.88-.91,1.81-.39,3.61-.4,5.42,0,.56.12.83.4.93.95.16.97.35,1.94.53,2.91.22,1.14,1.14,1.69,2.26,1.32.93-.31,1.87-.63,2.78-.99.59-.24.99-.1,1.39.36,1.18,1.39,2.07,2.93,2.68,4.65.17.47.04.81-.31,1.11-.76.64-1.51,1.28-2.26,1.91-1.03.86-1.03,1.93,0,2.79.76.64,1.51,1.28,2.26,1.91.35.3.49.63.32,1.1-.62,1.74-1.51,3.31-2.72,4.7-.39.45-.79.54-1.34.32-.89-.35-1.81-.66-2.72-.98-1.19-.41-2.1.13-2.33,1.36-.18.95-.36,1.9-.52,2.85-.09.54-.36.83-.92.95-1.81.39-3.61.39-5.42,0-.53-.12-.8-.39-.89-.91-.17-.97-.35-1.94-.53-2.91-.22-1.18-1.15-1.73-2.29-1.34-.93.32-1.86.64-2.78,1-.52.2-.92.12-1.29-.3-1.23-1.41-2.14-2.99-2.75-4.75-.17-.48,0-.8.35-1.1.77-.65,1.58-1.27,2.3-1.97.35-.34.56-.83.89-1.33Zm5.69-.04c-.02,2.27,1.77,4.08,4.03,4.07,2.21,0,4.01-1.76,4.04-3.94.03-2.27-1.73-4.08-4-4.11-2.23-.02-4.05,1.75-4.07,3.97Z"/>
</svg>