<?xml version="1.0" encoding="UTF-8"?>
<svg id="Layer_1" data-name="Layer 1" xmlns="http://www.w3.org/2000/svg" viewBox="0 0 34 34">
  <defs>
    <style>
      .cls-1 {
        fill: #131313;
        stroke: #121212;
        stroke-miterlimit: 10;
        stroke-width: .25px;
      }
    </style>
  </defs>
  <path class="cls-1" d="m13.33,27.58c.21.6.4,1.16.58,1.71.07.22.13.44.14.67.02.45-.24.77-.69.86-.39.08-.71-.1-.87-.45-.19-.4-.33-.83-.47-1.25-.33-.94-.65-1.89-.97-2.83-.2-.59-.08-.94.47-1.21,1.21-.6,2.43-1.18,3.65-1.75.61-.28,1.07-.15,1.3.31.23.46.07.92-.44,1.18-.67.34-1.36.67-2.05,1.11.64.14,1.27.35,1.91.41,2.23.2,4.34-.24,6.23-1.48,2.37-1.56,3.72-3.79,4.17-6.58.33-2.03-.08-3.92-.99-5.73-.07-.13-.13-.27-.17-.41-.17-.5-.05-.88.34-1.09.42-.22.88-.12,1.16.33.24.39.45.8.63,1.22.65,1.54,1.01,3.16.89,4.83-.29,4.03-2.13,7.15-5.63,9.23-1.38.82-2.89,1.24-4.48,1.42-1.51.17-2.96-.05-4.41-.45-.07-.02-.15-.03-.29-.06Z"/>
  <path class="cls-1" d="m20.62,6.4c-.17-.51-.32-.95-.47-1.39-.09-.28-.19-.56-.26-.85-.1-.46.14-.84.55-.95.55-.14.94.02,1.1.49.47,1.35.93,2.7,1.39,4.06.17.51.02.85-.48,1.1-1.21.59-2.43,1.19-3.65,1.76-.81.38-1.52-.04-1.38-.83.04-.25.28-.53.5-.66.58-.34,1.21-.6,1.81-.9.08-.04.15-.09.34-.2-.56-.12-1.01-.24-1.46-.32-4.54-.78-9.02,1.75-10.53,6.2-.89,2.63-.68,5.16.62,7.6.39.73.19,1.32-.49,1.47-.38.09-.7-.07-.94-.47-.79-1.35-1.23-2.8-1.39-4.36-.24-2.36.19-4.59,1.35-6.65,1.45-2.58,3.63-4.28,6.45-5.18,1.38-.44,2.78-.59,4.21-.46.84.08,1.67.32,2.5.49.05,0,.09.03.22.07Z"/>
</svg>